<?xml version="1.0" encoding="UTF-8" standalone="no"?>
<!-- Created with Inkscape (http://www.inkscape.org/) -->

<svg
   width="161.925mm"
   height="161.925mm"
   viewBox="0 0 161.925 161.925"
   version="1.1"
   id="svg140"
   inkscape:version="1.1.2 (b8e25be833, 2022-02-05)"
   sodipodi:docname="sword.svg"
   xmlns:inkscape="http://www.inkscape.org/namespaces/inkscape"
   xmlns:sodipodi="http://sodipodi.sourceforge.net/DTD/sodipodi-0.dtd"
   xmlns="http://www.w3.org/2000/svg"
   xmlns:svg="http://www.w3.org/2000/svg">
  <sodipodi:namedview
     id="namedview142"
     pagecolor="#505050"
     bordercolor="#eeeeee"
     borderopacity="1"
     inkscape:pageshadow="0"
     inkscape:pageopacity="0"
     inkscape:pagecheckerboard="0"
     inkscape:document-units="mm"
     showgrid="false"
     inkscape:snap-global="false"
     fit-margin-top="0"
     fit-margin-left="0"
     fit-margin-right="0"
     fit-margin-bottom="0"
     inkscape:zoom="0.98268796"
     inkscape:cx="-7.1233192"
     inkscape:cy="382.624"
     inkscape:window-width="1920"
     inkscape:window-height="1027"
     inkscape:window-x="-8"
     inkscape:window-y="-8"
     inkscape:window-maximized="1"
     inkscape:current-layer="layer1" />
  <defs
     id="defs137" />
  <g
     inkscape:label="Layer 1"
     inkscape:groupmode="layer"
     id="layer1"
     transform="translate(-15.513483,-53.209614)">
    <g
       id="g4017"
       transform="translate(182.81702,2.6924451)">
      <path
         id="path3852"
         style="fill:#ffffff;stroke-width:0.0449727"
         transform="matrix(0.26458333,0,0,0.26458333,15.513483,53.209614)"
         d="m -655.84375,551.66211 c -2.3e-4,10e-6 -0.24385,0.0351 -0.24414,0.0352 -2.9e-4,7e-5 -0.107,0.0309 -0.14453,0.0449 -0.0751,0.028 -0.11897,0.0497 -0.1543,0.0684 -0.1413,0.0744 -0.16111,0.0988 -0.19336,0.12304 -0.25799,0.19373 -0.34629,0.29632 -0.66992,0.59571 -0.71598,0.66234 -1.42536,1.29591 -2.00195,1.79297 -0.55482,0.47828 -1.01529,0.83409 -1.09766,0.89257 -0.0784,-0.0984 -0.12595,-0.19422 -0.28125,-0.28906 -0.25209,-0.15394 -0.62445,-0.22062 -0.89453,-0.17773 -0.54016,0.0858 -0.67659,0.31033 -0.77539,0.41601 -0.19761,0.21137 -0.21926,0.29153 -0.28125,0.40235 -0.12399,0.22163 -0.25774,0.49692 -0.47656,0.95312 -0.41673,0.86879 -0.76618,1.62267 -1.0293,2.21485 -0.26312,0.59217 -0.42492,0.94072 -0.53711,1.33789 -0.0234,0.0829 -0.0529,0.19487 -0.0488,0.38867 0.002,0.0969 0.0565,0.35877 0.0566,0.35937 1.9e-4,6.1e-4 0.24769,0.45466 0.24805,0.45508 3.6e-4,4.3e-4 0.45065,0.34546 0.45117,0.3457 5.3e-4,2.5e-4 0.43095,0.11517 0.43164,0.11524 7e-4,6e-5 0.21705,0.004 0.29492,-0.006 0.0779,-0.0104 0.13732,-0.0248 0.1875,-0.0391 0.40148,-0.11442 0.38631,-0.17704 0.44922,-0.22266 0.12583,-0.0912 0.19229,-0.15255 0.28711,-0.23828 0.18965,-0.17146 0.43644,-0.40947 0.76367,-0.73242 0.53928,-0.53223 2.26334,-2.22985 3.82813,-3.77149 1.35424,-1.33422 2.22216,-2.19924 2.62695,-2.61914 0.1012,-0.10497 0.16359,-0.16894 0.24414,-0.26367 0.0201,-0.0237 0.041,-0.0477 0.0801,-0.10156 0.0195,-0.0269 0.0441,-0.0586 0.084,-0.12891 0.0199,-0.0352 0.0435,-0.0807 0.0742,-0.15625 0.0154,-0.0378 0.0488,-0.14424 0.0488,-0.14453 8e-5,-2.9e-4 0.0449,-0.24782 0.0449,-0.24805 2e-5,-2.2e-4 -0.041,-0.43538 -0.041,-0.43554 -5e-5,-1.7e-4 -0.33388,-0.58193 -0.33399,-0.58203 -1e-4,-1.1e-4 -0.57209,-0.33785 -0.57226,-0.3379 -1.7e-4,-4e-5 -0.4236,-0.0469 -0.42383,-0.0469 z" />
      <path
         id="path3656"
         style="fill:#ffffff;stroke-width:0.0636011"
         transform="matrix(0.26458333,0,0,0.26458333,15.513483,53.209614)"
         d="m -494.70117,386.58398 a 3.0378797,3.0378797 0 0 0 -2.13477,1.29493 l -0.59765,0.86914 c -0.83775,1.21674 -1.6394,2.42091 -2.26563,3.40039 -0.31324,0.48993 -0.58108,0.92053 -0.79883,1.28711 -0.21729,0.36582 -0.33076,0.46444 -0.58593,1.13476 -0.0527,0.13806 -0.0979,0.25655 -0.15625,0.50391 -0.0292,0.12368 -0.076,0.24192 -0.0859,0.66211 -0.005,0.21009 -0.0544,0.48887 0.19336,1.14844 0.062,0.16489 0.28488,0.56793 0.28515,0.56835 2.7e-4,4.3e-4 0.57975,0.66964 0.58008,0.66993 3.3e-4,2.8e-4 0.93711,0.55063 0.9375,0.55078 4e-4,1.4e-4 1.04446,0.18359 1.04492,0.18359 0.9803,0 0.99441,-0.16071 1.13672,-0.2168 0.14232,-0.0561 0.2139,-0.0916 0.27735,-0.12304 0.12689,-0.0629 0.20463,-0.10805 0.28906,-0.15625 0.16885,-0.0964 0.33993,-0.20077 0.54492,-0.32813 0.40999,-0.25472 0.93512,-0.59351 1.5293,-0.98632 0.62632,-0.41407 1.56781,-1.04756 2.3789,-1.59961 0.40555,-0.27603 0.77512,-0.53056 1.0586,-0.72657 0.14174,-0.098 0.26103,-0.18042 0.35937,-0.25 0.0946,-0.0669 -0.082,0.12622 0.41602,-0.32226 l 0.004,-0.004 c 0.141,-0.12767 0.46826,-0.53054 0.46875,-0.53125 5e-4,-7.2e-4 0.45882,-1.01689 0.45899,-1.01758 1.7e-4,-6.8e-4 0.002,-1.42708 0.002,-1.42773 -1.6e-4,-6.6e-4 -0.53663,-1.13024 -0.53711,-1.13086 -4.7e-4,-6.2e-4 -0.4159,-0.45863 -0.58984,-0.58984 -0.17394,-0.13122 -0.31987,-0.21386 -0.44336,-0.27735 -0.24698,-0.12698 -0.40967,-0.1787 -0.53906,-0.2168 -0.088,-0.0259 -0.0628,-0.005 -0.12891,-0.0215 a 3.0378797,3.0378797 0 0 0 -3.10156,-2.34766 z" />
      <path
         id="path3480"
         style="fill:#ffffff;stroke-width:0.508808"
         transform="matrix(0.26458333,0,0,0.26458333,15.513483,53.209614)"
         d="m -170.98047,36.96875 c -0.66633,0 -0.68792,0.159218 -0.80078,0.224609 -0.11286,0.06539 -0.18891,0.120215 -0.26953,0.179688 -0.16125,0.118945 -0.32748,0.255886 -0.5332,0.431641 -0.41145,0.351508 -0.96382,0.851568 -1.67969,1.515624 -1.43174,1.328114 -3.50755,3.309143 -6.24805,5.964844 -5.481,5.311403 -13.62031,13.317174 -24.51953,24.117188 -21.79844,21.600028 -54.63267,54.374446 -99.27539,99.089846 -82.88038,83.01531 -96.1867,96.57418 -107.9707,110.04297 -2.61838,2.99273 -3.96709,4.52287 -4.70704,5.67968 -0.36997,0.57841 -0.6684,1.15225 -0.62304,1.90235 0.0453,0.75009 0.48296,1.27433 0.73828,1.55469 0.24442,0.26839 0.47622,0.51611 0.6582,0.70703 0.091,0.0954 0.16755,0.17561 0.23633,0.24414 0.0344,0.0343 0.0655,0.0647 0.10547,0.10156 0.0399,0.0369 -0.0881,0.0152 0.33203,0.24023 1.7e-4,9e-5 0.48416,0.15818 0.48438,0.15821 2.1e-4,3e-5 0.37278,0.004 0.37304,0.004 2.6e-4,-3e-5 0.24775,-0.0526 0.24805,-0.0527 3e-4,-9e-5 0.1179,-0.0411 0.16211,-0.0606 0.17684,-0.0776 0.2419,-0.132 0.29492,-0.17187 0.10604,-0.0797 0.1359,-0.11447 0.16797,-0.14649 0.0641,-0.064 0.0962,-0.10201 0.13281,-0.14453 0.0732,-0.085 0.14827,-0.17673 0.24219,-0.29492 0.18783,-0.23638 0.44069,-0.56446 0.74805,-0.96875 0.6147,-0.80857 1.44507,-1.92117 2.34961,-3.15039 1.72737,-2.3474 5.81534,-7.2377 8.95507,-10.69727 0.67653,-0.74544 4.67581,-4.83686 11.07813,-11.31836 6.40232,-6.48149 15.28777,-15.44318 26.00781,-26.23242 21.44008,-21.57848 50.21838,-50.4669 81.16211,-81.45898 30.94511,-30.99346 59.14574,-59.299813 79.65234,-79.935549 10.25331,-10.317868 18.58429,-18.718133 24.37305,-24.580079 2.89438,-2.930972 5.15261,-5.226566 6.70117,-6.8125 0.77429,-0.792966 1.37017,-1.407864 1.78321,-1.839843 0.20652,-0.21599 0.36686,-0.385883 0.48632,-0.515625 0.0597,-0.06487 0.10733,-0.117583 0.1543,-0.171875 0.047,-0.05429 0.025,0.06656 0.23828,-0.335938 0.25121,-0.474112 0.47621,-0.792094 0.50196,-1.503906 0.0129,-0.355906 -0.12364,-0.954069 -0.55274,-1.335937 -0.4291,-0.381869 -0.89065,-0.429688 -1.1875,-0.429688 z" />
      <path
         id="path3284"
         style="fill:#ffffff;stroke-width:1.43913"
         transform="matrix(0.26458333,0,0,0.26458333,15.513483,53.209614)"
         d="m -152.99805,55.628906 a 1.1449333,1.1449333 0 0 0 -1.60156,0.002 l -89.67969,88.294924 c -49.32383,48.56239 -103.60788,101.91341 -120.62109,118.54883 -17.02128,16.64329 -47.92035,47.07529 -68.66992,67.63086 -10.36901,10.27206 -19.88217,19.52294 -26.85157,26.14648 -2.5399,2.41387 -4.29068,4.01819 -6.07031,5.6543 1.16972,-1.76857 2.22699,-3.38681 3.89649,-5.82617 4.95624,-7.24174 11.9059,-17.13355 19.64648,-27.91797 7.74805,-10.79482 14.7189,-20.68068 19.71289,-27.91797 2.497,-3.61864 4.50023,-6.57379 5.86328,-8.6582 0.68153,-1.04221 1.20053,-1.86516 1.55274,-2.46094 0.1761,-0.29789 0.30951,-0.53267 0.41211,-0.74609 0.0513,-0.10671 0.0953,-0.20074 0.14062,-0.35157 0.0227,-0.0754 0.0507,-0.16246 0.0586,-0.33203 0.008,-0.16957 0.0254,-0.52346 -0.3418,-0.89062 -0.23885,-0.23887 -0.58833,-0.34681 -0.82031,-0.35352 -0.23198,-0.007 -0.38001,0.0405 -0.49414,0.082 -0.22828,0.083 -0.34832,0.17053 -0.47657,0.26172 -0.2565,0.18239 -0.49943,0.40213 -0.79492,0.6875 -0.59098,0.57075 -1.3524,1.39257 -2.26367,2.42969 -1.82254,2.07424 -4.22659,4.99855 -6.79102,8.29687 -7.51104,9.66055 -23.25416,30.73849 -37.56054,50.12696 -7.1532,9.69423 -13.94432,18.9646 -19.16407,26.16797 -5.21974,7.20336 -8.80189,12.22444 -9.76953,13.82812 -0.3628,0.60129 -0.6025,1.1558 -0.64062,1.79492 -0.0191,0.31956 0.005,0.70232 0.27148,1.09571 0.26604,0.39338 0.82054,0.64453 1.24219,0.64453 0.34062,0 0.46396,-0.0716 0.61133,-0.12891 0.14737,-0.0573 0.28517,-0.1231 0.43945,-0.20312 0.30856,-0.16005 0.67723,-0.37593 1.13086,-0.65821 0.90726,-0.56455 2.14877,-1.39346 3.75,-2.5 3.20247,-2.21306 7.83412,-5.53367 13.94922,-10.0039 12.23019,-8.94047 30.38894,-22.47029 54.83203,-40.84766 l 42.45508,-31.91797 A 1.1449333,1.1449333 0 0 0 -375.52148,305.5 L -258.5918,188.33984 c 32.15687,-32.22007 61.39043,-61.6723 82.58594,-83.16992 10.59776,-10.748809 19.18523,-19.507659 25.12695,-25.632811 2.97087,-3.062576 5.27976,-5.466215 6.85157,-7.134765 0.7859,-0.834275 1.38618,-1.484099 1.80078,-1.949219 0.2073,-0.23256 0.36611,-0.416161 0.49023,-0.570313 0.0621,-0.07708 0.11429,-0.145124 0.17188,-0.230468 0.0288,-0.04267 0.0589,-0.08616 0.0996,-0.166016 0.0407,-0.07986 0.13476,-0.145063 0.13476,-0.548828 0,-0.812985 -0.29938,-1.095021 -0.625,-1.607422 -0.32562,-0.512401 -0.76163,-1.098273 -1.29297,-1.751953 -1.06266,-1.30736 -2.49997,-2.873226 -4.08593,-4.421875 a 1.1449333,1.1449333 0 0 0 -0.002,0 z" />
      <path
         id="path3088"
         style="fill:#ffffff;stroke-width:1.01762"
         transform="matrix(0.26458333,0,0,0.26458333,15.513483,53.209614)"
         d="m -202.44922,6.2636719 a 0.92613844,0.92613844 0 0 0 -0.65625,0.2714843 L -305.15039,108.77344 c -145.78534,146.05951 -192.82611,194.68444 -214.07422,221.33984 -41.13554,51.60384 -97.65874,139.98619 -135.26172,211.48438 -1.86381,3.54384 -3.55793,6.84763 -4.78906,9.32226 -0.61557,1.23732 -1.11477,2.26626 -1.46484,3.02149 -0.17504,0.37761 -0.31241,0.68551 -0.41211,0.92773 -0.0498,0.12111 -0.0891,0.22547 -0.12305,0.32617 -0.034,0.1007 -0.084,0.12214 -0.084,0.4375 0,0.18301 0.0907,0.53594 0.36524,0.75 0.2745,0.21406 0.54799,0.21123 0.69336,0.19531 0.29074,-0.0318 0.35365,-0.0998 0.4414,-0.14843 0.17552,-0.0973 0.31065,-0.20076 0.49219,-0.3418 0.36308,-0.28208 0.8575,-0.70457 1.50196,-1.27734 1.2889,-1.14556 3.16202,-2.8807 5.54492,-5.13477 4.7658,-4.50815 11.56761,-11.08192 19.73242,-19.06445 16.32961,-15.96506 38.10932,-37.56281 59.92383,-59.49414 41.01043,-41.23007 45.41728,-46.24888 62.07617,-70.67188 34.50956,-50.59322 85.3885,-118.54359 102.36133,-136.77343 6.93453,-7.44812 61.66627,-62.85237 121.4414,-122.91993 L -178.09961,31.535156 a 0.92613844,0.92613844 0 0 0 -0.002,-1.30664 l -11.84766,-11.845704 -11.8457,-11.8476558 a 0.92613844,0.92613844 0 0 0 -0.6543,-0.2714843 z" />
      <path
         style="fill:#000000;stroke-width:0.264583"
         d="m -164.37754,205.70091 c 0,-0.2076 6.93831,-13.94179 8.62035,-17.06373 4.79834,-8.90594 15.45393,-25.99743 22.57245,-36.20604 11.92464,-17.10104 12.9584,-18.2189 66.157854,-71.540452 l 27.64659,-27.71004 0.68512,0.65639 c 0.37682,0.36102 0.79767,0.65668 0.93523,0.65703 0.27729,7.2e-4 5.20961,4.81232 9.91943,9.67668 1.68011,1.73524 5.99552,6.072 9.58981,9.63726 3.59429,3.56526 6.53567,6.54976 6.5364,6.63221 8e-4,0.0825 -14.55405,14.67172 -32.34397,32.420582 -19.91577,19.8698 -36.23135,35.9019 -42.45791,41.72022 -9.48431,8.86248 -10.54458,9.76658 -17.065624,14.55216 -9.15251,6.71673 -26.7883,18.36235 -36.06802,23.81717 -4.0896,2.40395 -11.24293,6.27375 -15.93954,8.62294 -4.68621,2.34399 -8.58064,4.2618 -8.65428,4.2618 -0.0736,0 -0.13389,-0.0604 -0.13389,-0.13418 z m 20.74142,-20.33375 c 8.86118,-8.75175 16.9718,-16.89129 18.02362,-18.08787 1.05182,-1.19657 3.25852,-4.17314 4.90378,-6.61458 5.43951,-8.07183 11.03066,-15.87966 17.57822,-24.54732 2.19853,-2.91042 5.114924,-6.77995 6.480884,-8.59896 2.14294,-2.85372 6.78257,-7.61332 33.83031,-34.705112 l 31.34678,-31.39781 -3.25397,-3.2235 -3.25398,-3.22349 -5.83272,5.78173 c -34.47607,34.1746 -66.678344,66.838462 -74.091264,75.153252 -8.85599,9.93343 -23.40308,31.5393 -34.93673,51.88928 -2.49129,4.39563 -7.54036,14.08254 -7.14808,13.71396 0.13307,-0.12501 7.49199,-7.38783 16.35315,-16.13958 z m 30.94783,-29.91103 c 4.4315,-3.17334 9.32581,-6.79865 19.748244,-14.6279 l 8.33438,-6.26072 31.53127,-31.48135 c 30.77871,-30.729972 31.52084,-31.494532 31.09399,-32.033392 -0.2405,-0.30363 -1.0623,-1.13316 -1.82621,-1.84341 l -1.38893,-1.29137 -7.20784,7.1122 c -9.18618,9.06431 -21.22126,20.90481 -29.84499,29.362512 -3.71078,3.63934 -10.08063,9.89141 -14.15521,13.8935 -4.07459,4.0021 -9.31333,9.10841 -11.64167,11.34736 -2.32833,2.23896 -8.2157,8.05849 -13.083064,12.93229 -4.86735,4.8738 -8.55921,8.45282 -8.20415,7.95337 0.35507,-0.49945 2.07526,-2.88674 3.82265,-5.30509 1.74738,-2.41836 4.84394,-6.73956 6.881234,-9.60266 2.03729,-2.86311 4.54821,-6.36134 5.57982,-7.77383 1.4671,-2.00876 6.88455,-7.55561 24.87083,-25.4649 26.62226,-26.508282 38.73789,-38.693252 38.73789,-38.959592 0,-0.10366 -0.14902,-0.18847 -0.33115,-0.18847 -0.18213,0 -14.39421,14.07914 -31.58241,31.28698 -33.76683,33.805432 -31.08713,30.929032 -40.485994,43.457812 -8.50347,11.33522 -14.76953,19.97604 -14.48603,19.97604 0.0885,0 1.72534,-1.12022 3.63734,-2.48938 z"
         id="path1405" />
    </g>
  </g>
</svg>
